<svg width="24" height="24" viewBox="0 0 24 24" fill="none" xmlns="http://www.w3.org/2000/svg">
<path d="M16.3124 6.05842L9.30549 19.832C9.02968 20.3742 8.48115 20.6859 7.91256 20.685C7.34394 20.6859 6.79539 20.3742 6.51959 19.832L0.170275 7.35117C0.0133598 7.04272 -0.031425 6.70658 0.020801 6.38934C0.106384 5.60795 0.767594 5 1.57057 5H9.69732C10.3461 5 10.9023 5.39687 11.1372 5.96145L11.4686 6.61294L9.71788 10.0513L8.73705 8.12329H4.06295L7.91252 15.6904L12.8518 5.98121C13.1581 5.37916 13.7764 5 14.4518 5H17.8732C17.5661 5.01183 17.2773 5.09933 17.0066 5.2625C16.7467 5.41914 16.5219 5.67225 16.332 6.02182L16.3127 6.05789L16.3124 6.05842Z" fill="#FF1522"/>
<path fill-rule="evenodd" clip-rule="evenodd" d="M18.9447 5C18.6375 5.01183 18.3487 5.09933 18.078 5.2625C17.8181 5.41914 17.5933 5.67225 17.4034 6.02182L17.3825 6.06091L16.3333 8.12331L19.9356 8.1233L16.0862 15.6899L14.2851 12.1494L12.9136 14.8454L12.9067 14.8429L12.5309 15.5808L14.6951 19.8349C14.9671 20.3679 15.5037 20.6774 16.0631 20.6849C16.0697 20.685 16.0763 20.685 16.083 20.685H16.0897C16.0976 20.685 16.1055 20.685 16.1134 20.6848C16.6714 20.676 17.2062 20.3667 17.4776 19.8349L17.4784 19.8332L23.8302 7.34758C23.9571 7.09817 24.0104 6.83066 23.9983 6.56976L23.9983 6.55905C23.9983 5.69801 23.3003 5 22.4393 5H18.9447ZM16.1098 20.6848L16.1134 20.6848C16.1122 20.6848 16.111 20.6848 16.1098 20.6848ZM16.0593 20.6848L16.0631 20.6849C16.0619 20.6848 16.0606 20.6848 16.0593 20.6848Z" fill="#FF1522"/>
</svg>
